<svg width="200" height="200" viewBox="0 0 200 200" fill="none" xmlns="http://www.w3.org/2000/svg">
<path d="M77.1648 137.233H61.832C63.8625 144.175 67.6295 150.395 73.1442 155.894C81.9366 164.659 92.5093 169.035 104.872 169.035C107.279 169.037 109.683 168.859 112.064 168.502C121.377 167.1 129.53 162.904 136.516 155.894C142.066 150.398 145.86 144.175 147.906 137.233H77.1648Z" fill="#2C2255"/>
<path d="M68.7098 116.476H60.7005C60.4019 118.257 60.2071 120.054 60.1172 121.858H149.631C149.54 120.054 149.344 118.257 149.043 116.476M60.1172 126.855C60.2065 128.658 60.4013 130.455 60.7005 132.235H149.046C149.34 130.483 149.542 128.692 149.633 126.855" fill="#2C2255"/>
<path d="M147.908 111.479C145.864 104.518 142.069 98.2677 136.516 92.7312C129.549 85.7863 121.419 81.6197 112.137 80.2179C109.732 79.8556 107.304 79.6746 104.873 79.6765C92.5098 79.6765 81.9363 84.0295 73.1448 92.7312C67.6284 98.2677 63.8597 104.518 61.8301 111.479" fill="#2C2255"/>
<path d="M57.4557 124.358C57.4557 100.788 75.215 81.2035 98.3187 77.7596C97.7454 77.7386 97.1687 77.7151 96.5904 77.7151C70.664 77.7159 49.6445 98.5994 49.6445 124.358C49.6445 150.118 70.6632 171 96.5904 171C97.1712 171 97.747 170.978 98.322 170.957C75.215 167.512 57.4557 147.928 57.4557 124.358Z" fill="#F7941E"/>
<path d="M135.336 121.857C135.19 120.039 134.879 118.238 134.409 116.475H75.3396C74.8691 118.237 74.5587 120.038 74.4121 121.856L135.336 121.857Z" fill="url(#paint0_linear_1106_3552)"/>
<path d="M135.337 126.855H74.4141C74.5643 128.699 74.8749 130.498 75.3407 132.236H134.411C134.877 130.498 135.187 128.699 135.337 126.855Z" fill="url(#paint1_linear_1106_3552)"/>
<path d="M104.875 154.831C117.142 154.831 127.717 147.627 132.586 137.233H77.1641C82.0332 147.627 92.6084 154.831 104.875 154.831Z" fill="url(#paint2_linear_1106_3552)"/>
<path d="M69.8969 126.855H149.57C149.612 126.06 149.636 125.26 149.636 124.454C149.636 123.581 149.603 122.718 149.555 121.857H60.1166C60.0645 122.721 60.0374 123.587 60.0352 124.454C60.0352 125.259 60.0587 126.06 60.1015 126.854L69.8969 126.855ZM76.9845 111.478H61.828C61.3303 113.106 61.0088 114.775 60.6999 116.476H148.761C148.456 114.788 148.054 113.12 147.555 111.479M143.003 132.235H60.6991C60.9996 133.936 61.3412 135.604 61.8306 137.233H147.848C148.34 135.592 148.736 133.923 149.033 132.235H143.003Z" fill="white"/>
<path d="M93.4707 19.9089H96.5121V23.7603H93.4707V19.9089Z" fill="#F7941E"/>
<path d="M67.9743 35.711V37.1985H53.9902C54.1219 39.2928 54.7525 40.8874 55.8828 41.9839C57.0123 43.0811 58.5854 43.6285 60.6019 43.6285C61.7699 43.6285 62.9026 43.4853 63.999 43.1997C65.1337 42.8982 66.2293 42.4654 67.2637 41.91V44.7866C66.1818 45.2464 65.0581 45.6007 63.9081 45.8445C62.7614 46.0871 61.5924 46.2091 60.4202 46.2087C57.4674 46.2087 55.1282 45.3494 53.4035 43.6293C51.6788 41.91 50.8164 39.5862 50.8164 36.6557C50.8164 33.6251 51.6349 31.2197 53.2711 29.4396C54.9072 27.661 57.1147 26.7701 59.8912 26.7701C62.3821 26.7701 64.3516 27.5716 65.8007 29.1755C67.2498 30.777 67.9743 32.956 67.9743 35.711ZM64.933 34.8178C64.9106 33.1547 64.4456 31.8265 63.5363 30.8348C62.6269 29.843 61.4227 29.3472 59.9251 29.3472C58.2273 29.3472 56.8683 29.8269 55.8497 30.7855C54.8302 31.7441 54.2435 33.0938 54.0895 34.8355L64.933 34.8178ZM83.657 27.9266V30.7701C82.8397 30.3138 81.9713 29.9558 81.0699 29.7037C80.2164 29.4684 79.3351 29.349 78.4497 29.3487C76.4771 29.3487 74.9456 29.9739 73.8546 31.2244C72.7635 32.4748 72.2184 34.2303 72.2184 36.4886C72.2184 38.7477 72.7635 40.5032 73.8546 41.7537C74.9456 43.0056 76.4771 43.6301 78.4497 43.6301C79.3313 43.6301 80.2053 43.5115 81.0699 43.2759C81.9714 43.0236 82.8398 42.6654 83.657 42.2087V45.0191C82.8142 45.4135 81.9299 45.7126 81.0207 45.9107C80.0671 46.114 79.0944 46.2139 78.1194 46.2087C75.3306 46.2087 73.1162 45.3325 71.4746 43.58C69.8323 41.8283 69.0107 39.4645 69.0107 36.4886C69.0107 33.4704 69.84 31.095 71.4985 29.3649C73.157 27.6348 75.4307 26.7693 78.3173 26.7693C79.2544 26.7693 80.1691 26.8664 81.0615 27.0588C81.9546 27.2513 82.8193 27.5408 83.657 27.9266ZM86.6091 19.9089H89.6512V45.6297H86.6091V19.9089ZM93.4695 27.0673H96.5108V45.5812H93.4695V27.0673ZM103.089 42.9525V52.7711H100.033V27.2159H103.09V30.0263C103.73 28.9245 104.538 28.1052 105.513 27.5709C106.488 27.0373 107.653 26.7693 109.008 26.7693C111.256 26.7693 113.084 27.6617 114.488 29.4473C115.893 31.2336 116.595 33.5805 116.595 36.4886C116.595 39.3991 115.893 41.746 114.488 43.5307C113.084 45.3155 111.257 46.2087 109.009 46.2087C107.654 46.2087 106.488 45.9415 105.513 45.4071C104.537 44.8728 103.729 44.0543 103.089 42.9525ZM113.439 36.4886C113.439 34.2519 112.978 32.4971 112.058 31.2244C111.138 29.9516 109.874 29.3148 108.264 29.3148C106.655 29.3148 105.39 29.9516 104.471 31.2244C103.551 32.4971 103.09 34.2519 103.09 36.4886C103.09 38.7261 103.551 40.4817 104.471 41.7537C105.39 43.0272 106.655 43.6632 108.264 43.6632C109.874 43.6632 111.138 43.0264 112.058 41.7537C112.978 40.4817 113.439 38.7261 113.439 36.4886ZM131.088 27.7618V30.6376C130.238 30.201 129.339 29.868 128.41 29.6459C127.467 29.4238 126.502 29.3129 125.533 29.3156C124.023 29.3156 122.891 29.5466 122.136 30.0101C121.382 30.4721 121.004 31.1674 121.004 32.0929C121.004 32.7974 121.274 33.3518 121.813 33.7537C122.353 34.1564 123.438 34.5391 125.07 34.9033L126.111 35.1343C128.271 35.597 129.806 36.2499 130.716 37.0931C131.624 37.9362 132.079 39.1127 132.079 40.6218C132.079 42.3411 131.399 43.7017 130.037 44.7049C128.676 45.7074 126.806 46.2087 124.425 46.2087C123.434 46.2087 122.4 46.1124 121.325 45.9199C120.175 45.7077 119.04 45.4178 117.928 45.0522V41.9107C119.053 42.4959 120.16 42.9332 121.251 43.2258C122.342 43.5184 123.423 43.6632 124.491 43.6632C125.924 43.6632 127.025 43.4183 127.797 42.9279C128.568 42.4374 128.954 41.746 128.954 40.8536C128.954 40.0274 128.676 39.3937 128.12 38.9517C127.563 38.5113 126.342 38.0871 124.458 37.679L123.4 37.4311C121.516 37.0345 120.155 36.4263 119.317 35.6047C118.48 34.7839 118.061 33.6575 118.061 32.2246C118.061 30.4829 118.678 29.1393 119.912 28.1915C121.147 27.2436 122.899 26.7693 125.169 26.7693C126.293 26.7693 127.351 26.8517 128.343 27.0165C129.335 27.1836 130.25 27.4307 131.088 27.7618ZM150 35.711V37.1985H136.016C136.148 39.2928 136.778 40.8874 137.909 41.9839C139.038 43.0811 140.611 43.6285 142.627 43.6285C143.796 43.6285 144.928 43.4853 146.025 43.1997C147.16 42.8982 148.255 42.4654 149.29 41.91V44.7866C148.208 45.2464 147.084 45.6006 145.933 45.8445C144.787 46.0871 143.618 46.2091 142.446 46.2087C139.493 46.2087 137.154 45.3494 135.43 43.6293C133.705 41.91 132.842 39.5862 132.842 36.6549C132.842 33.6243 133.661 31.219 135.296 29.4388C136.933 27.6594 139.141 26.7693 141.917 26.7693C144.407 26.7693 146.378 27.5709 147.827 29.1747C149.275 30.7762 150 32.956 150 35.711ZM146.959 34.8178C146.936 33.1547 146.471 31.8265 145.562 30.8348C144.651 29.843 143.447 29.3472 141.95 29.3472C140.253 29.3472 138.894 29.8269 137.876 30.7855C136.856 31.7441 136.268 33.0938 136.115 34.8355L146.958 34.8186L146.959 34.8178Z" fill="#2C2255"/>
<defs>
<linearGradient id="paint0_linear_1106_3552" x1="3120.61" y1="5978.72" x2="3120.61" y2="-741.824" gradientUnits="userSpaceOnUse">
<stop offset="0.3033" stop-color="#473788"/>
<stop offset="0.872" stop-color="#2C2255"/>
</linearGradient>
<linearGradient id="paint1_linear_1106_3552" x1="3120.5" y1="4950.54" x2="3120.5" y2="-1768.96" gradientUnits="userSpaceOnUse">
<stop offset="0.3033" stop-color="#473788"/>
<stop offset="0.872" stop-color="#2C2255"/>
</linearGradient>
<linearGradient id="paint2_linear_1106_3552" x1="2848.2" y1="3923.84" x2="2848.2" y2="-2796.65" gradientUnits="userSpaceOnUse">
<stop offset="0.3033" stop-color="#473788"/>
<stop offset="0.8631" stop-color="#2C2255"/>
</linearGradient>
</defs>
</svg>
