<svg width="200" height="200" viewBox="0 0 200 200" fill="none" xmlns="http://www.w3.org/2000/svg">
<path d="M78.1068 88.95H61.9014C58.8322 88.95 56.3496 91.4458 56.3496 94.5009V110.199C56.3496 111.822 57.0589 113.363 58.2866 114.413L110.34 159.026C111.349 159.885 112.632 160.362 113.955 160.362H130.16C133.229 160.362 135.712 157.88 135.712 154.811V139.113C135.712 137.49 135.003 135.949 133.775 134.899L81.7216 90.2865C80.7122 89.4273 79.4299 88.95 78.1068 88.95Z" fill="#FF8100"/>
<path d="M76.1561 88.95H61.9014C58.8322 88.95 56.3496 91.4322 56.3496 94.5009V112.354C56.3496 112.613 56.3633 112.886 56.4042 113.145L63.6065 163.526C64.0021 166.268 66.3347 168.3 69.1038 168.3H90.479C93.5482 168.3 96.0308 165.818 96.0308 162.749V137.463C96.0308 136.863 95.9217 136.276 95.7444 135.703L81.4215 92.7415C80.6712 90.4775 78.5433 88.95 76.1561 88.95Z" fill="url(#paint0_linear_1089_3434)"/>
<path d="M138.098 81.0136H91.7598C89.5363 81.0136 87.5311 82.3366 86.6581 84.3824L64.7373 135.514C64.4372 136.209 64.2871 136.946 64.2871 137.696V162.737C64.2871 165.805 66.7697 168.288 69.8389 168.288H94.3515C95.4428 168.288 96.5204 167.96 97.4343 167.347L141.181 138.16C142.722 137.123 143.65 135.391 143.65 133.536V86.551C143.65 83.4822 141.167 81 138.098 81V81.0136Z" fill="url(#paint1_linear_1089_3434)"/>
<path d="M127.282 97.3689H72.7188V151.932H127.282V97.3689Z" fill="black"/>
<path d="M91.5976 121.101H87.5326V107.774H91.5976V104.214H79.5391V107.774H83.604V121.101H79.5391V124.661H91.5976V121.101ZM99.6184 104.2V117.937C99.6184 118.537 99.4956 119.055 99.2364 119.519C98.9773 119.983 98.6226 120.337 98.1588 120.596C97.695 120.856 97.163 120.978 96.5765 120.978H93.6437V124.661H97.0812C98.3225 124.661 99.4274 124.389 100.423 123.829C101.419 123.27 102.197 122.506 102.756 121.524C103.315 120.542 103.602 119.437 103.602 118.209V104.2H99.6184ZM79.5391 145.123H101.364V141.03H79.5391V145.123Z" fill="white"/>
<path fill-rule="evenodd" clip-rule="evenodd" d="M28.6551 47.0616H25V27.0067H28.6551V47.0616ZM40.1359 32.0472C41.1869 32.0472 42.1107 32.2748 42.9007 32.7367L42.9074 32.7567C43.6973 33.2119 44.3199 33.8813 44.755 34.7448C45.1901 35.6083 45.411 36.6459 45.411 37.8508V47.0749H42.0438V38.3662C42.0438 37.6567 41.9233 37.0542 41.6823 36.5589C41.4413 36.0635 41.0999 35.682 40.6514 35.4209C40.2028 35.1598 39.6673 35.026 39.0447 35.026C38.3753 35.026 37.7862 35.1732 37.2707 35.4744C36.7553 35.7757 36.3536 36.1907 36.0724 36.7329C35.7913 37.2751 35.6507 37.8842 35.6507 38.5737V47.0682H32.2701V32.3953H35.5503V34.544C35.972 33.8344 36.5143 33.2588 37.1904 32.8371C38.0272 32.3082 39.0112 32.0472 40.1359 32.0472ZM49.6887 28.814H52.8351V32.3953H56.7312L56.7178 35.3339H52.8217L52.8351 42.7373C52.8351 43.1389 52.9689 43.4736 53.23 43.7347C53.4911 43.9958 53.8258 44.1296 54.2275 44.1296H56.7178V47.0682H53.5513C52.7681 47.0682 52.0585 46.9009 51.4359 46.5662C50.8134 46.2315 50.3247 45.7629 49.9766 45.1739C49.6285 44.5781 49.4544 43.9087 49.4544 43.1657L49.441 35.3272H46.8637L46.8771 32.3886H48.4837C48.8519 32.3886 49.1398 32.2815 49.3607 32.0539C49.5816 31.833 49.6887 31.5451 49.6887 31.1904V28.814ZM65.2397 32.0472C66.6856 32.0472 67.9709 32.3752 69.0956 33.0245L69.0822 33.0178C70.2136 33.6738 71.0905 34.5775 71.7131 35.7355C72.3357 36.8936 72.6503 38.2189 72.6503 39.7117V40.5283H61.0758C61.1427 41.2044 61.3101 41.8269 61.5979 42.3825C61.9594 43.0854 62.4548 43.6276 63.0908 44.0225C63.7267 44.4175 64.443 44.6116 65.2463 44.6116C65.9559 44.6116 66.5919 44.471 67.1542 44.1966C67.7166 43.9221 68.1852 43.5339 68.5601 43.0385H72.2419C71.8938 43.9489 71.3918 44.7254 70.7357 45.3747C70.0797 46.024 69.283 46.526 68.3458 46.8808C67.4153 47.2356 66.3777 47.4096 65.2397 47.4096C63.8004 47.4096 62.5017 47.0749 61.3503 46.4189C60.1988 45.7562 59.2884 44.8459 58.6256 43.6678C57.9629 42.4896 57.6282 41.1375 57.6282 39.6983C57.6282 38.2591 57.9629 36.9538 58.6324 35.7891C59.3018 34.6243 60.2189 33.7073 61.377 33.0446C62.5418 32.3819 63.7937 32.0472 65.2397 32.0472ZM61.1441 38.2591H69.1893C69.109 37.8106 68.9818 37.3889 68.7943 36.994C68.4596 36.2844 67.9843 35.7288 67.3685 35.3272C66.7526 34.9255 66.043 34.7247 65.2397 34.7247C64.4363 34.7247 63.72 34.9189 63.0841 35.3071C62.4481 35.6953 61.9527 36.2309 61.5912 36.9136C61.3717 37.3267 61.2311 37.7796 61.1441 38.2591ZM78.4944 47.0616H75.1138V27.0067H78.4944V47.0616ZM85.1419 47.0616H81.7613V27.0067H85.1419V47.0616ZM91.7827 31.9802V41.3182H88.3418V31.9802H91.7827ZM95.6922 42.088C96.0001 41.5458 96.1541 40.9233 96.1541 40.2137L96.1474 40.207V27H99.7155V40.5216C99.7155 41.8269 99.4142 42.9649 98.8185 43.9489C98.216 44.9329 97.3792 45.696 96.3081 46.2382C95.2303 46.7804 93.9851 47.0549 92.5726 47.0549H88.3351V43.8016H92.5057C93.222 43.8016 93.8579 43.6544 94.4069 43.3531C94.9558 43.0519 95.3843 42.6302 95.6922 42.088ZM88.2146 27.5824H92.0706V30.936H88.2146V27.5824ZM115.869 47.0616H112.214V27.0067H115.869V47.0616ZM127.356 27.0067C129.251 27.0067 130.945 27.4418 132.437 28.2986V28.2852C133.93 29.1487 135.095 30.3336 135.939 31.8531C136.775 33.3726 137.197 35.0929 137.197 37.0274C137.197 38.962 136.782 40.6823 135.939 42.2018C135.102 43.7213 133.937 44.9061 132.437 45.7696C130.938 46.6331 129.251 47.0616 127.356 47.0616H119.832V27.0067H127.356ZM130.603 43.1122C131.54 42.5432 132.27 41.7466 132.779 40.7024V40.7091C133.294 39.6648 133.549 38.4465 133.549 37.0408C133.549 35.6351 133.288 34.4168 132.779 33.3726C132.27 32.3283 131.547 31.5251 130.603 30.9628C129.659 30.4005 128.568 30.1193 127.33 30.1193H123.407V43.9556H127.33C128.568 43.9556 129.666 43.6811 130.603 43.1122ZM153.417 38.5269H143.644V43.902H154.676V47.0682H140.163V27.0134H154.388V30.1796H143.644V35.4343H153.417V38.5269ZM163.64 27.0067H167.496L175 47.0616H171.392L169.685 42.2487H161.631L160.058 47.0616H156.363L163.64 27.0067ZM165.226 31.4046L162.522 39.4439H168.721L165.842 31.4046L165.528 30.1595L165.226 31.4046Z" fill="black"/>
<defs>
<linearGradient id="paint0_linear_1089_3434" x1="55.3675" y1="91.4049" x2="89.2835" y2="164.553" gradientUnits="userSpaceOnUse">
<stop offset="0.1" stop-color="#FC801D"/>
<stop offset="0.59" stop-color="#FE2857"/>
</linearGradient>
<linearGradient id="paint1_linear_1089_3434" x1="62.1046" y1="162.873" x2="142.177" y2="82.7877" gradientUnits="userSpaceOnUse">
<stop offset="0.21" stop-color="#FE2857"/>
<stop offset="0.7" stop-color="#007EFF"/>
</linearGradient>
</defs>
</svg>
