<?xml version="1.0" encoding="UTF-8"?>
<svg version="1.1" xmlns="http://www.w3.org/2000/svg" width="340" height="86">
<path d="M0 0 C0.78568359 -0.00064453 1.57136719 -0.00128906 2.38085938 -0.00195312 C3.59805664 0.02801758 3.59805664 0.02801758 4.83984375 0.05859375 C5.65517578 0.05150391 6.47050781 0.04441406 7.31054688 0.03710938 C13.28776347 0.10095803 13.28776347 0.10095803 15.34222412 1.75909424 C17.04332281 3.81802196 17.31342048 5.06306159 17.66870117 7.69213867 C17.84854805 8.95310616 17.84854805 8.95310616 18.0320282 10.23954773 C18.14778702 11.1427626 18.26354584 12.04597748 18.3828125 12.9765625 C18.57620964 14.36854607 18.57620964 14.36854607 18.77351379 15.78865051 C19.18248046 18.75215064 19.57385213 21.71767391 19.96484375 24.68359375 C20.23907868 26.6935174 20.51445546 28.7032856 20.79101562 30.71289062 C21.46638652 35.63891939 22.12598751 40.56683451 22.77734375 45.49609375 C25.00174329 43.43880195 26.436818 41.54712668 27.78271484 38.83837891 C28.3287587 37.75177475 28.3287587 37.75177475 28.88583374 36.64321899 C29.27026642 35.86505829 29.6546991 35.08689758 30.05078125 34.28515625 C30.88391234 32.63140851 31.71725223 30.97776595 32.55078125 29.32421875 C33.85314403 26.72341892 35.15233549 24.12111036 36.44726562 21.51660156 C37.70246669 18.99760217 38.96968352 16.4849293 40.23828125 13.97265625 C40.61866547 13.19854401 40.99904968 12.42443176 41.39096069 11.62686157 C43.63522855 7.19868485 45.83846395 3.66636451 49.77734375 0.49609375 C51.96557617 -0.08740234 51.96557617 -0.08740234 54.1328125 -0.02734375 C54.91978516 -0.01574219 55.70675781 -0.00414063 56.51757812 0.0078125 C57.72897461 0.06388672 57.72897461 0.06388672 58.96484375 0.12109375 C59.78404297 0.13527344 60.60324219 0.14945312 61.44726562 0.1640625 C67.40761972 0.31123174 67.40761972 0.31123174 69.77734375 1.49609375 C70.14776595 8.91889513 68.74586995 15.75446876 67.2578125 23.0078125 C66.99857498 24.2942012 66.73933746 25.5805899 66.47224426 26.90596008 C65.92505935 29.61587754 65.37213072 32.32454298 64.81518555 35.0324707 C64.1039927 38.49330332 63.40857334 41.95709024 62.71755505 45.42199993 C62.0524955 48.74412114 61.37319442 52.06328387 60.6953125 55.3828125 C60.32481026 57.24228767 60.32481026 57.24228767 59.94682312 59.139328 C59.70680069 60.29435318 59.46677826 61.44937836 59.21948242 62.6394043 C58.90970711 64.15874825 58.90970711 64.15874825 58.59367371 65.70878601 C57.71067776 68.72372061 56.6354943 70.96408389 54.77734375 73.49609375 C51.89453125 74.01953125 51.89453125 74.01953125 48.65234375 73.87109375 C47.57726562 73.83757812 46.5021875 73.8040625 45.39453125 73.76953125 C42.77734375 73.49609375 42.77734375 73.49609375 41.77734375 72.49609375 C41.49468373 67.08673127 42.23625217 62.19937235 43.30859375 56.9375 C43.46396606 56.14834702 43.61933838 55.35919403 43.77941895 54.54612732 C44.27253214 52.04900666 44.77477951 49.5538276 45.27734375 47.05859375 C45.61519072 45.35624022 45.95243638 43.65376724 46.2890625 41.95117188 C47.1115426 37.7980655 47.94221434 33.64667421 48.77734375 29.49609375 C46.83768086 32.91153659 44.90082991 36.32856557 42.96484375 39.74609375 C42.38114014 40.77557129 41.79743652 41.80504883 41.19604492 42.86572266 C38.27085199 48.03743522 35.36967672 53.2193676 32.53515625 58.44140625 C31.78842651 59.81570801 31.78842651 59.81570801 31.02661133 61.21777344 C30.08147155 62.96319045 29.14106425 64.71117985 28.20581055 66.46191406 C27.78211182 67.24405273 27.35841309 68.02619141 26.921875 68.83203125 C26.55425049 69.5182959 26.18662598 70.20456055 25.80786133 70.91162109 C24.77734375 72.49609375 24.77734375 72.49609375 22.77734375 73.49609375 C21.11388793 73.61691909 19.44513784 73.67147315 17.77734375 73.68359375 C16.89046875 73.69777344 16.00359375 73.71195312 15.08984375 73.7265625 C12.77734375 73.49609375 12.77734375 73.49609375 10.77734375 71.49609375 C10.27358702 69.31755234 9.87266893 67.11483573 9.5234375 64.90625 C9.41765884 64.24709091 9.31188019 63.58793182 9.20289612 62.90879822 C8.979794 61.50808597 8.76065828 60.10673713 8.54516602 58.70483398 C8.22069664 56.59662239 7.88397747 54.49067486 7.54492188 52.38476562 C6.33683407 44.77654813 5.33280769 37.18391858 4.77734375 29.49609375 C4.11734375 29.49609375 3.45734375 29.49609375 2.77734375 29.49609375 C2.64448975 30.64803223 2.51163574 31.7999707 2.37475586 32.98681641 C1.84053405 37.24947226 1.07522564 41.4362732 0.21875 45.64453125 C0.06953598 46.38313385 -0.07967804 47.12173645 -0.2334137 47.88272095 C-0.54693347 49.42752303 -0.862132 50.97198529 -1.17895508 52.51611328 C-1.66284423 54.88424864 -2.13523083 57.25450806 -2.60742188 59.625 C-2.9146632 61.13165361 -3.2225815 62.63816937 -3.53125 64.14453125 C-3.74073524 65.20696548 -3.74073524 65.20696548 -3.95445251 66.29086304 C-4.99400523 71.26744273 -4.99400523 71.26744273 -7.22265625 73.49609375 C-10.04296875 73.69140625 -10.04296875 73.69140625 -13.34765625 73.62109375 C-14.44335938 73.60304688 -15.5390625 73.585 -16.66796875 73.56640625 C-17.51101562 73.54320313 -18.3540625 73.52 -19.22265625 73.49609375 C-21.65360895 69.80819728 -21.15415791 67.37449088 -20.31982422 63.13867188 C-19.94855911 61.2064679 -19.94855911 61.2064679 -19.5697937 59.23522949 C-19.28555299 57.83245023 -19.00055103 56.42982504 -18.71484375 55.02734375 C-18.4293722 53.58547196 -18.14464369 52.14345287 -17.86062622 50.70129395 C-17.26230511 47.68003162 -16.65409654 44.66096928 -16.0390625 41.64306641 C-15.25272358 37.77987282 -14.49247821 33.91208261 -13.7397747 30.04221344 C-13.15709066 27.06310366 -12.55990493 24.08704206 -11.95840836 21.11167908 C-11.67232283 19.68688449 -11.39089238 18.26114686 -11.114254 16.83448792 C-10.72497478 14.83787704 -10.31386667 12.84555982 -9.90185547 10.85351562 C-9.6737619 9.71974487 -9.44566833 8.58597412 -9.21066284 7.41784668 C-7.6018944 2.66036434 -5.12046751 -0.01328791 0 0 Z " fill="#F16B4E" transform="translate(27.22265625,1.50390625)"/>
<path d="M0 0 C0.7022168 0.00491455 1.40443359 0.0098291 2.12792969 0.01489258 C8.81105719 0.16621746 13.31949287 1.04951912 18.5625 5.375 C22.49758383 13.08120583 19.38129406 22.85797724 17.625 30.875 C15.71945126 39.61206532 15.71945126 39.61206532 14.52734375 48.46484375 C14.0625 52.3125 14.0625 52.3125 12.0625 54.3125 C9.2421875 54.5078125 9.2421875 54.5078125 5.9375 54.4375 C4.84179688 54.41945312 3.74609375 54.40140625 2.6171875 54.3828125 C1.77414063 54.35960937 0.93109375 54.33640625 0.0625 54.3125 C-0.2675 53.3225 -0.5975 52.3325 -0.9375 51.3125 C-1.66453125 51.60125 -2.3915625 51.89 -3.140625 52.1875 C-11.65307054 55.33055682 -19.71313621 57.1456101 -28.5 54.0625 C-32.23802343 51.37879087 -33.58629458 49.59189119 -34.8125 45.125 C-34.99425653 39.58142582 -34.02543014 34.91394809 -30.4921875 30.51171875 C-23.73106539 24.17513222 -14.73885767 22.88340648 -5.875 21.625 C-5.00939453 21.49544922 -4.14378906 21.36589844 -3.25195312 21.23242188 C-1.14819392 20.91860144 0.95701257 20.61450786 3.0625 20.3125 C4.07790112 16.21026415 4.07790112 16.21026415 3.0625 12.3125 C-1.44858783 11.31853149 -3.88055361 10.93359469 -8.25 12.5 C-10.99834901 14.07594917 -10.99834901 14.07594917 -12.1875 16.41015625 C-13.9375 18.3125 -13.9375 18.3125 -17.07421875 18.703125 C-18.24597656 18.65671875 -19.41773437 18.6103125 -20.625 18.5625 C-21.80449219 18.52640625 -22.98398438 18.4903125 -24.19921875 18.453125 C-25.10285156 18.40671875 -26.00648437 18.3603125 -26.9375 18.3125 C-27.9375 15.3125 -27.9375 15.3125 -27.22265625 13.4453125 C-23.27214351 6.95788902 -18.84561576 3.64640777 -11.67578125 1.19921875 C-7.7301473 0.26331603 -4.03119875 -0.03331968 0 0 Z M-9 31.5625 C-10.53333984 31.91054688 -10.53333984 31.91054688 -12.09765625 32.265625 C-15.28510441 33.44064028 -16.81277325 34.68783754 -18.9375 37.3125 C-19.60435938 39.85577108 -19.60435938 39.85577108 -18.9375 42.3125 C-17.57676464 44.39936892 -17.57676464 44.39936892 -14.9375 45.3125 C-10.50646401 45.51917145 -6.96418459 44.87048076 -3.0625 42.75 C-0.04624092 39.29017341 2.0625 34.989998 2.0625 30.3125 C-1.824119 30.16934645 -5.2192543 30.66391569 -9 31.5625 Z " fill="#F16B4E" transform="translate(129.9375,20.6875)"/>
<path d="M0 0 C3.9738786 3.02211014 6.04927341 6.53279877 7.58203125 11.203125 C7.84765625 14.6484375 7.84765625 14.6484375 7.83203125 18.328125 C7.83976562 20.15730469 7.83976562 20.15730469 7.84765625 22.0234375 C7.58203125 25.203125 7.58203125 25.203125 5.58203125 28.203125 C2.89418308 28.54096596 0.42488875 28.69204744 -2.26953125 28.71484375 C-3.04356293 28.73279495 -3.8175946 28.75074615 -4.61508179 28.76924133 C-7.09098842 28.82348892 -9.56670078 28.85728509 -12.04296875 28.890625 C-13.72007921 28.92378546 -15.39716398 28.95827393 -17.07421875 28.99414062 C-21.18866216 29.07922317 -25.30304652 29.14596453 -29.41796875 29.203125 C-30.53462066 32.91737851 -30.211982 34.70952025 -28.41796875 38.203125 C-24.68257725 40.07082075 -20.48452238 39.76775726 -16.41796875 39.203125 C-14.33875856 38.1295194 -14.33875856 38.1295194 -12.48046875 36.703125 C-7.74272392 33.24953277 -3.06606942 33.73591079 2.58203125 34.203125 C2.47742465 38.49199549 1.40313934 40.79378285 -1.48046875 43.828125 C-8.89411647 50.70896436 -16.70889867 52.53817767 -26.6328125 52.41796875 C-32.14503812 51.99276201 -35.97650465 50.38832882 -40.23046875 46.890625 C-46.27704856 39.4619698 -46.24567082 32.45221437 -45.41796875 23.203125 C-43.55448482 14.14659309 -37.4739928 6.72457306 -29.97265625 1.5 C-20.97880074 -3.66478831 -9.30475206 -5.56326228 0 0 Z M-25.41796875 12.203125 C-27.69531885 15.01822493 -27.69531885 15.01822493 -27.41796875 18.203125 C-20.81796875 18.203125 -14.21796875 18.203125 -7.41796875 18.203125 C-7.65130208 11.56979167 -7.65130208 11.56979167 -10.41796875 9.203125 C-16.43652455 7.51792938 -20.44688775 8.6833711 -25.41796875 12.203125 Z " fill="#F16B4E" transform="translate(252.41796875,23.796875)"/>
<path d="M0 0 C3.14491249 2.25788589 5.02942987 3.72865584 5.82014465 7.645401 C6.51705934 13.21084435 6.20685031 17.95886392 5.07421875 23.43359375 C4.84615288 24.60596336 4.84615288 24.60596336 4.61347961 25.80201721 C4.29268311 27.43591877 3.96547999 29.0685747 3.63208008 30.69995117 C3.12191657 33.20262615 2.63473542 35.70901063 2.15039062 38.21679688 C1.83466604 39.81016049 1.51765518 41.40326989 1.19921875 42.99609375 C1.05328781 43.74499374 0.90735687 44.49389374 0.75700378 45.26548767 C-0.33089213 50.51839213 -0.33089213 50.51839213 -2.5625 52.75 C-5.34765625 52.98046875 -5.34765625 52.98046875 -8.625 52.9375 C-10.25115234 52.92783203 -10.25115234 52.92783203 -11.91015625 52.91796875 C-14.5625 52.75 -14.5625 52.75 -15.5625 51.75 C-15.3749207 43.2329126 -13.55213402 34.87410897 -11.84765625 26.56054688 C-10.48759453 19.65290073 -10.48759453 19.65290073 -11.5625 12.75 C-14.62679776 11.21785112 -17.1790642 11.52061452 -20.5625 11.75 C-23.56458678 13.14813164 -25.19641042 14.10023486 -26.83569336 17.00976562 C-29.51191393 25.06592529 -31.19427415 33.15097387 -32.71679688 41.4921875 C-32.91466797 42.51570313 -33.11253906 43.53921875 -33.31640625 44.59375 C-33.48470947 45.51349609 -33.6530127 46.43324219 -33.82641602 47.38085938 C-34.63854698 49.99476282 -35.39069391 51.11188346 -37.5625 52.75 C-40.2265625 53.078125 -40.2265625 53.078125 -43.1875 53 C-44.16976563 52.98453125 -45.15203125 52.9690625 -46.1640625 52.953125 C-48.5625 52.75 -48.5625 52.75 -49.5625 51.75 C-49.87386582 46.12885811 -49.02408203 40.99096611 -47.91796875 35.4921875 C-47.66228874 34.19306931 -47.66228874 34.19306931 -47.40144348 32.8677063 C-47.04080864 31.04670613 -46.67670911 29.22638904 -46.30932617 27.40673828 C-45.7507782 24.62887027 -45.20978361 21.84795852 -44.66992188 19.06640625 C-44.31616297 17.29145531 -43.96137998 15.51670811 -43.60546875 13.7421875 C-43.44596237 12.91500214 -43.28645599 12.08781677 -43.12211609 11.23556519 C-42.23408593 6.91666826 -41.3417887 3.30028593 -38.5625 -0.25 C-35.86328125 -0.73828125 -35.86328125 -0.73828125 -32.875 -0.5625 C-31.88113281 -0.51738281 -30.88726562 -0.47226562 -29.86328125 -0.42578125 C-29.10402344 -0.36777344 -28.34476562 -0.30976563 -27.5625 -0.25 C-26.9025 1.07 -26.2425 2.39 -25.5625 3.75 C-24.97984375 3.3890625 -24.3971875 3.028125 -23.796875 2.65625 C-15.9615653 -1.77883096 -8.63233358 -3.02888897 0 0 Z " fill="#F16B4E" transform="translate(312.5625,22.25)"/>
<path d="M0 0 C2.25 -0.3125 2.25 -0.3125 5 0 C8.26686722 3.3958225 9.59715206 6.16448285 10.5 10.75 C10.73332031 11.87277344 10.96664062 12.99554688 11.20703125 14.15234375 C11.46871094 15.42207031 11.73039063 16.69179688 12 18 C12.71055992 21.1086158 13.4487386 24.21048252 14.1875 27.3125 C14.53548542 28.78768281 14.88316928 30.2629368 15.23046875 31.73828125 C15.48441406 32.81464844 15.73835938 33.89101563 16 35 C16.52207031 34.12859375 17.04414063 33.2571875 17.58203125 32.359375 C22.91042367 23.66219033 28.79753144 16.21310736 36 9 C36.75925781 8.22914062 37.51851562 7.45828125 38.30078125 6.6640625 C42.11360138 3.03075368 42.11360138 3.03075368 44 2 C48.4502447 2.4502447 48.4502447 2.4502447 50 4 C50.80708599 10.4566879 49.48760116 13.56955697 45.60546875 18.7265625 C43.7449974 21.36109857 42.43794046 24.11346767 41 27 C39.5596708 29.43501284 38.03625101 31.81214159 36.5 34.1875 C36.10941406 34.80302734 35.71882813 35.41855469 35.31640625 36.05273438 C33.41744631 39.00347516 31.51562078 41.565291 29 44 C28.38125 45.155 27.7625 46.31 27.125 47.5 C25.28445914 50.82280849 23.57561599 52.48036321 20 54 C18.68 54 17.36 54 16 54 C15.67 54.66 15.34 55.32 15 56 C14.505 55.505 14.505 55.505 14 55 C14.60825035 59.34464536 15.26167392 63.67551867 16 68 C15.34 68 14.68 68 14 68 C13.01 65.36 12.02 62.72 11 60 C9.68 62.64 8.36 65.28 7 68 C6.34 68 5.68 68 5 68 C5.2165625 67.37351562 5.433125 66.74703125 5.65625 66.1015625 C5.9346875 65.28429687 6.213125 64.46703125 6.5 63.625 C6.7784375 62.81289062 7.056875 62.00078125 7.34375 61.1640625 C8.09673305 59.05790758 8.09673305 59.05790758 8 57 C7.34 56.01 6.68 55.02 6 54 C6 53.01 6 52.02 6 51 C4.56249809 49.31201173 4.56249809 49.31201173 3 48 C3.66 48 4.32 48 5 48 C4.1028125 46.2984375 4.1028125 46.2984375 3.1875 44.5625 C-2.36451148 31.95686538 -5.01808814 13.01504135 0 0 Z " fill="#BE2042" transform="translate(160,18)"/>
<path d="M0 0 C1 1 1 1 1.4375 4.5 C1.37725056 10.07307285 -1.4803377 13.87696702 -5 18 C-8.90327145 21.30276815 -11.9761627 21.29551984 -17 21 C-18.625 18.25 -18.625 18.25 -20 15 C-18.74235889 10.92558738 -15.47547367 8.21493233 -12.5 5.3125 C-12.00113281 4.81427734 -11.50226563 4.31605469 -10.98828125 3.80273438 C-6.95044683 -0.18638622 -5.57002754 -1.42821219 0 0 Z " fill="#E46928" transform="translate(209,21)"/>
<path d="M0 0 C2.25 -0.3125 2.25 -0.3125 5 0 C8.76617867 3.76617867 9.78413456 7.1451199 10.75 12.3125 C11.11351562 14.19388672 11.11351562 14.19388672 11.484375 16.11328125 C11.65453125 17.06589844 11.8246875 18.01851562 12 19 C7.44040071 21.91814355 4.5840509 23.66476796 -1 23 C-3.01104219 20.98895781 -2.18506471 17.0619438 -2.1875 14.3125 C-2.19974609 13.60416016 -2.21199219 12.89582031 -2.22460938 12.16601562 C-2.23692394 7.72045783 -1.66936626 4.18991135 0 0 Z " fill="#E77227" transform="translate(160,18)"/>
<path d="M0 0 C3 3.625 3 3.625 3 7 C6.63 6.67 10.26 6.34 14 6 C11.08538163 10.85769728 11.08538163 10.85769728 9 13 C5.25 13.8125 5.25 13.8125 2 14 C1.67 14.66 1.34 15.32 1 16 C0.67 15.67 0.34 15.34 0 15 C0.60825035 19.34464536 1.26167392 23.67551867 2 28 C1.34 28 0.68 28 0 28 C-0.99 25.36 -1.98 22.72 -3 20 C-4.32 22.64 -5.64 25.28 -7 28 C-7.66 28 -8.32 28 -9 28 C-8.67515625 27.06027344 -8.67515625 27.06027344 -8.34375 26.1015625 C-8.0653125 25.28429687 -7.786875 24.46703125 -7.5 23.625 C-7.08234375 22.40683594 -7.08234375 22.40683594 -6.65625 21.1640625 C-5.90326695 19.05790758 -5.90326695 19.05790758 -6 17 C-6.66 16.01 -7.32 15.02 -8 14 C-8 13.01 -8 12.02 -8 11 C-9.43750191 9.31201173 -9.43750191 9.31201173 -11 8 C-10.34 8 -9.68 8 -9 8 C-9.33 6.68 -9.66 5.36 -10 4 C-8.02 4.66 -6.04 5.32 -4 6 C-3.34 5.01 -2.68 4.02 -2 3 C-1.34 2.01 -0.68 1.02 0 0 Z " fill="#772777" transform="translate(174,58)"/>
<path d="M0 0 C6 0 12 0 18 0 C17.67 2.64 17.34 5.28 17 8 C13.26562152 8.87867729 9.83225427 9.08912219 6 9 C6.33 6.69 6.66 4.38 7 2 C6.34 2 5.68 2 5 2 C4.34 4.31 3.68 6.62 3 9 C2.34 9 1.68 9 1 9 C1.33 6.69 1.66 4.38 2 2 C1.34 2 0.68 2 0 2 C0 1.34 0 0.68 0 0 Z " fill="#F16B4E" transform="translate(320,21)"/>
<path d="M0 0 C0.66 2.31 1.32 4.62 2 7 C-2.55959929 9.91814355 -5.4159491 11.66476796 -11 11 C-12 10 -12 10 -12.0625 6.4375 C-12.041875 5.303125 -12.02125 4.16875 -12 3 C-10.125 2.375 -10.125 2.375 -8 2 C-7.34 2.66 -6.68 3.32 -6 4 C-5.38125 3.34 -4.7625 2.68 -4.125 2 C-2 0 -2 0 0 0 Z " fill="#DC522C" transform="translate(170,30)"/>
<path d="M0 0 C1.79275866 3.11910856 2.34290718 5.67682428 2.625 9.25 C2.69976562 10.14203125 2.77453125 11.0340625 2.8515625 11.953125 C2.90054688 12.62859375 2.94953125 13.3040625 3 14 C0.69 14 -1.62 14 -4 14 C-7.15533981 8.66019417 -7.15533981 8.66019417 -6.5 5.875 C-4.60279533 3.50349417 -2.4382311 1.79659133 0 0 Z " fill="#DA4A2D" transform="translate(196,28)"/>
<path d="M0 0 C2.25 0.8125 2.25 0.8125 3.25 1.8125 C3.39115161 4.48308851 3.29247107 7.13682238 3.25 9.8125 C0.28 9.4825 -2.69 9.1525 -5.75 8.8125 C-6.41 7.1625 -7.07 5.5125 -7.75 3.8125 C-3.45648683 -0.23566956 -3.45648683 -0.23566956 0 0 Z " fill="#F59523" transform="translate(206.75,20.1875)"/>
<path d="M0 0 C2.625 0.25 2.625 0.25 4.4375 1.75 C4.829375 2.245 5.22125 2.74 5.625 3.25 C4.25516497 6.41115776 3.6359362 7.2427092 0.625 9.25 C-2.0625 8.875 -2.0625 8.875 -4.375 8.25 C-3.37015034 0.35475267 -3.37015034 0.35475267 0 0 Z " fill="#F49422" transform="translate(162.375,17.75)"/>
<path d="M0 0 C0.99 0.99 1.98 1.98 3 3 C-1.59301742 6.48435804 -4.08615072 8.26283775 -10 8 C-10.33 7.34 -10.66 6.68 -11 6 C-10.28972656 5.65066406 -9.57945312 5.30132812 -8.84765625 4.94140625 C-7.92855469 4.48636719 -7.00945312 4.03132813 -6.0625 3.5625 C-4.68771484 2.88380859 -4.68771484 2.88380859 -3.28515625 2.19140625 C-1.09471096 1.19474606 -1.09471096 1.19474606 0 0 Z " fill="#D43B30" transform="translate(169,33)"/>
<path d="M0 0 C0 0.99 0 1.98 0 3 C-1.53125 4.38671875 -1.53125 4.38671875 -3.5 5.6875 C-4.47453125 6.34298828 -4.47453125 6.34298828 -5.46875 7.01171875 C-5.9740625 7.33785156 -6.479375 7.66398437 -7 8 C-7.33 7.01 -7.66 6.02 -8 5 C-2.25 0 -2.25 0 0 0 Z " fill="#E26529" transform="translate(170,27)"/>
</svg>
