<?xml version="1.0" encoding="UTF-8"?>
<svg version="1.1" xmlns="http://www.w3.org/2000/svg" width="512" height="512">
<path d="M0 0 C0.92250608 -0.00706559 1.84501217 -0.01413118 2.79547298 -0.02141088 C4.31806482 -0.01778826 4.31806482 -0.01778826 5.87141609 -0.01409245 C6.94850936 -0.01932912 8.02560263 -0.0245658 9.13533509 -0.02996117 C12.76274132 -0.04502352 16.39000728 -0.04566769 20.0174427 -0.04633427 C22.61072721 -0.05395152 25.20400945 -0.06237826 27.79728889 -0.07155704 C34.85507248 -0.09441966 41.91282602 -0.10232888 48.97064161 -0.10738349 C53.37637436 -0.1106388 57.78209836 -0.11716024 62.18782616 -0.12438488 C74.38293044 -0.14395182 86.57802659 -0.16035569 98.77314758 -0.16326141 C99.94402688 -0.16354277 99.94402688 -0.16354277 101.1385603 -0.16382981 C102.72103699 -0.16419606 104.30351368 -0.16455976 105.88599037 -0.16492092 C106.67154737 -0.16510373 107.45710438 -0.16528654 108.26646614 -0.16547489 C109.05298038 -0.16565544 109.83949463 -0.16583599 110.64984263 -0.16602201 C123.39834004 -0.16956475 136.14666865 -0.19659288 148.89510749 -0.23397278 C161.97964927 -0.27203161 175.06410723 -0.29141871 188.1487056 -0.29172093 C195.49694115 -0.29230602 202.84497531 -0.30083116 210.1931591 -0.32971859 C217.10262969 -0.3567562 224.01169472 -0.358158 230.92119789 -0.34206295 C233.46049937 -0.34024083 235.99982333 -0.34700734 238.53907585 -0.36288166 C241.99929337 -0.38319862 245.4580934 -0.37287353 248.91829109 -0.35466862 C249.92889088 -0.36786858 250.93949066 -0.38106855 251.98071468 -0.39466852 C256.47580855 -0.34045615 258.84104058 -0.19607664 262.64487648 2.3525219 C264.97875644 5.96786125 265.15035849 8.10397083 265.15675545 12.39543819 C265.1645554 13.10263705 265.17235535 13.8098359 265.18039167 14.53846502 C265.2002981 16.90257798 265.18455427 19.26507864 265.16880989 21.62920284 C265.17558668 23.32624913 265.18449016 25.02328807 265.19536018 26.72031307 C265.21815298 31.32576117 265.20931736 35.93064919 265.19346476 40.53610706 C265.18080564 45.35576925 265.1925459 50.1753835 265.20039558 54.99504757 C265.20949211 63.08884446 265.19750415 71.18241324 265.1736927 79.2761755 C265.14648141 88.63364363 265.15529557 97.99056706 265.18282473 107.34802198 C265.2055147 115.38215214 265.20871643 123.41611833 265.19563138 131.45027018 C265.18783625 136.24871881 265.18679698 141.04691141 265.20331383 145.84534359 C265.21775772 150.35666876 265.20773863 154.86729169 265.17884254 159.37854099 C265.17223126 161.03414208 265.1741302 162.68980226 265.18515587 164.34537983 C265.19882258 166.60594623 265.18168647 168.86426322 265.15675545 171.12468624 C265.15487032 172.38934467 265.15298519 173.65400311 265.15104294 174.95698452 C264.52183723 178.26006222 264.52183723 178.26006222 262.64682865 181.1667614 C258.09801153 184.2138234 254.25238817 183.95088897 248.88705635 183.8882513 C247.80346511 183.89534569 246.71987388 183.90244008 245.60344654 183.90974945 C241.96577722 183.92737756 238.32916953 183.90919888 234.69151497 183.89116573 C232.08645833 183.89630263 229.48140516 183.90358217 226.87635994 183.91284847 C220.53153123 183.93123072 214.1870104 183.92270934 207.84219127 183.90476025 C202.68642982 183.8907376 197.53075199 183.88684071 192.3749733 183.89020252 C191.27451572 183.89091869 191.27451572 183.89091869 190.15182667 183.89164932 C188.66149224 183.89267564 187.17115784 183.893731 185.68082345 183.89481508 C172.50187123 183.90338316 159.32306773 183.88670304 146.14415169 183.85698605 C133.35242149 183.82814246 120.56090549 183.8210677 107.76915169 183.83647823 C93.84225899 183.85323329 79.915468 183.85728219 65.98857266 183.83976787 C64.50401025 183.83792346 63.01944784 183.83608874 61.53488541 183.8342638 C60.80443397 183.83335171 60.07398254 183.83243962 59.32139621 183.83149989 C54.17053029 183.8258906 49.01971395 183.82920526 43.86885071 183.83580875 C36.93883989 183.84434039 30.00914384 183.83140574 23.07918358 183.80395985 C20.53141576 183.79705575 17.98361912 183.79699956 15.43585205 183.80417538 C11.96676379 183.81282239 8.49864167 183.79699337 5.02963448 183.77472591 C4.01359514 183.78296668 2.99755581 183.79120745 1.9507274 183.79969794 C-4.83282349 183.71893918 -4.83282349 183.71893918 -8.07240009 181.41539574 C-10.66151431 177.44573231 -10.60746231 174.15056377 -10.61860466 169.51705074 C-10.62157578 168.82789495 -10.6245469 168.13873915 -10.62760806 167.42869985 C-10.63629552 165.11417429 -10.63780334 162.79970045 -10.63929558 160.48515987 C-10.64392368 158.82782537 -10.64894833 157.17049194 -10.65434074 155.51315975 C-10.66746653 151.00694745 -10.67390991 146.50075005 -10.6783514 141.99452162 C-10.68128151 139.18013368 -10.68538617 136.36574983 -10.68985558 133.55136395 C-10.70353025 124.74836166 -10.71319736 115.94536869 -10.71705747 107.14235651 C-10.72153994 96.97556692 -10.73909671 86.80891166 -10.76805806 76.64216292 C-10.78966057 68.78646017 -10.79976096 60.93079525 -10.80109859 53.07506311 C-10.80214753 48.3816988 -10.80807452 43.68846076 -10.8259182 38.99512768 C-10.84237442 34.58087265 -10.84456635 30.16683916 -10.83577919 25.75256443 C-10.83500753 24.13242341 -10.8393685 22.5122706 -10.84923744 20.89215946 C-10.86192159 18.68018846 -10.85610007 16.46900632 -10.84565544 14.25704098 C-10.847122 13.01928228 -10.84858856 11.78152359 -10.85009956 10.50625706 C-10.44170306 6.9418487 -9.63727743 5.09777988 -7.47816277 2.26006222 C-4.32571301 0.15842905 -3.59507593 0.0087878 0 0 Z M26.52183723 47.26006222 C19.20471927 56.26936164 17.50014365 64.76277622 18.52183723 76.26006222 C20.60152482 84.64107867 26.45019496 91.46990609 33.58433723 96.13506222 C39.69303741 99.61411241 45.72086532 100.70316537 52.61949348 101.69756222 C55.48664899 102.25324242 57.89183134 102.99617246 60.52183723 104.26006222 C63.39064703 108.63158191 63.0616669 114.21888363 62.52183723 119.26006222 C60.92735937 123.0070852 58.99797968 125.15330922 55.52183723 127.26006222 C52.07089223 128.39400667 48.79648535 128.3850907 45.18199348 128.40068722 C43.34024544 128.42969112 43.34024544 128.42969112 41.46129036 128.45928097 C38.88071817 128.49308191 36.29989509 128.51136029 33.71910286 128.51396847 C26.39096853 128.33238922 26.39096853 128.33238922 20.18589973 131.58818722 C17.94605885 135.18455145 17.70500115 137.10162397 18.52183723 141.26006222 C21.35792662 144.84166774 23.09486223 146.04865026 27.64952278 146.72344112 C30.83633476 146.86859789 33.99813949 146.91698941 37.18760872 146.85698605 C39.18609838 146.8229579 41.18523701 146.83906851 43.18394661 146.85576534 C54.31091423 146.77243808 63.61762447 145.02132017 71.80699348 137.09990597 C77.99628087 130.45946324 81.21626578 123.70402491 81.65464973 114.45928097 C81.26059235 106.26520531 78.39204978 99.56080665 73.02183723 93.38506222 C72.19683723 92.68381222 71.37183723 91.98256222 70.52183723 91.26006222 C69.79996223 90.57943722 69.07808723 89.89881222 68.33433723 89.19756222 C62.43287636 85.1321114 56.26558877 83.25071822 49.20933723 82.26006222 C43.6390589 81.44489953 40.6388157 80.08270018 37.20933723 75.51006222 C35.73280074 70.67776097 36.04007458 66.60392645 37.70933723 61.94756222 C39.77637278 58.88264744 41.2182273 57.87051423 44.52183723 56.26006222 C47.58043098 55.85942745 47.58043098 55.85942745 50.95933723 55.81865597 C52.18394661 55.79223019 53.40855598 55.76580441 54.67027473 55.73857784 C55.94129036 55.72504269 57.21230598 55.71150753 58.52183723 55.69756222 C61.04280047 55.66304599 63.56366868 55.62039601 66.08433723 55.56865597 C67.1993763 55.55632931 68.31441536 55.54400265 69.46324348 55.53130245 C73.29104771 55.19184759 76.1933118 54.2564563 79.27183723 51.94756222 C80.98514809 49.63459257 81.38762557 48.14561295 81.52183723 45.26006222 C79.97342866 41.08145595 79.97342866 41.08145595 76.80748177 38.1030798 C71.67721669 36.21087671 65.79569925 36.93422511 60.39683723 36.94756222 C59.11550911 36.93144894 57.83418098 36.91533566 56.51402473 36.89873409 C44.4736895 36.89256589 35.26559855 38.58317479 26.52183723 47.26006222 Z M107.20933723 52.01006222 C101.59209733 60.28840336 99.90922577 68.81347968 99.99058723 78.66631222 C99.98676033 79.71226559 99.98293343 80.75821896 99.97899055 81.83586788 C99.97628811 84.03082406 99.98353127 86.22581337 100.00035286 88.42070675 C100.02178545 91.75201389 100.00049275 95.08116472 99.97496223 98.41240597 C99.97760581 100.55954607 99.98273139 102.70668486 99.99058723 104.85381222 C99.98249031 105.83434566 99.97439339 106.81487911 99.9660511 107.82512569 C100.12070141 119.41204088 104.1463368 128.65467595 112.14683723 136.94365597 C119.73748313 143.98960274 128.6522727 146.61112252 138.83824348 146.47490597 C146.09596239 145.89386588 151.96905802 143.43100303 157.73277473 139.05303097 C159.52183723 138.26006222 159.52183723 138.26006222 161.54136848 138.92412472 C163.54844679 140.27801186 165.12909513 141.73418053 166.83433723 143.44756222 C169.66479059 145.92572738 170.24356975 146.24591302 174.20933723 146.44756222 C178.15978981 145.03136224 179.49073117 143.91605314 181.52183723 140.26006222 C182.44012517 137.39134354 182.44012517 137.39134354 181.52183723 134.26006222 C179.0342817 130.78013081 176.2023042 127.47922453 172.72886848 124.95928097 C171.06732319 122.62021235 171.80085049 121.14540353 172.24121284 118.43872738 C172.80468471 114.06413785 172.72761849 109.64928362 172.76011848 105.24443722 C172.7722261 103.66701748 172.7722261 103.66701748 172.78457832 102.05773067 C172.79836253 99.83889544 172.8091098 97.62003951 172.81700325 95.4011755 C172.82852296 93.1475309 172.84897445 90.89391358 172.87852669 88.64043331 C172.92145026 85.36241512 172.93740538 82.08520245 172.94761848 78.80693722 C172.97388062 77.31731472 172.97388062 77.31731472 173.00067329 75.79759884 C172.96860803 65.30204841 169.79200759 55.95405416 162.52183723 48.26006222 C155.45214966 41.2762413 146.49261348 37.41353804 136.52183723 36.76006222 C124.56294363 37.54383749 114.73586996 42.87337572 107.20933723 52.01006222 Z M201.52183723 42.26006222 C200.09939411 46.37347208 200.36653169 50.65316065 200.36070442 54.95659542 C200.35573952 55.8335104 200.35077461 56.71042538 200.34565926 57.61391354 C200.33106293 60.51289819 200.32423984 63.41182812 200.31871223 66.31084347 C200.3129587 68.32859962 200.307201 70.34635577 200.30143929 72.3641119 C200.2909365 76.59497488 200.2850891 80.8258189 200.28160286 85.05669308 C200.27611966 90.47044266 200.25209219 95.88394055 200.22363091 101.29761124 C200.20498125 105.4661192 200.19979768 109.63456682 200.19826698 113.80311298 C200.1952452 115.79855062 200.18723271 117.7939873 200.1740818 119.78938389 C200.15697274 122.58489768 200.15891344 125.3798001 200.16539192 128.17534542 C200.15617714 128.99481152 200.14696236 129.81427761 200.13746834 130.65857601 C200.17556284 135.92236878 201.0648409 139.58116428 203.52183723 144.26006222 C208.09839037 147.99310893 215.57051884 146.63191238 221.22081184 146.63066769 C223.44888396 146.6350417 225.67497457 146.67138533 227.90269661 146.70928097 C229.326518 146.71514975 230.75034874 146.71911873 232.17418098 146.72099972 C234.10765388 146.73332638 234.10765388 146.73332638 236.08018684 146.74590206 C240.07277378 146.18228938 241.69610197 145.07628543 244.52183723 142.26006222 C245.96614578 139.37144512 245.89872229 137.46358521 245.52183723 134.26006222 C243.77306451 131.35468581 243.77306451 131.35468581 240.52183723 129.26006222 C236.73235868 128.64705833 233.03527961 128.78845393 229.20933723 128.94756222 C228.18259895 128.97012081 227.15586067 128.99267941 226.09800911 129.01592159 C223.57111933 129.07468647 221.04723468 129.15678373 218.52183723 129.26006222 C218.52849907 128.2062788 218.5351609 127.15249538 218.54202461 126.06677914 C218.60284457 116.13497205 218.64781415 106.20320275 218.67727375 96.27125168 C218.69292839 91.16514797 218.71416312 86.05919462 218.74815559 80.95317745 C218.78075604 76.02540961 218.79869177 71.09778638 218.80646896 66.16991901 C218.81201123 64.29004483 218.8228339 62.41017855 218.8390274 60.53036594 C218.86081077 57.89687793 218.86380378 55.26398719 218.86241341 52.63042355 C218.87319923 51.85358715 218.88398506 51.07675076 218.89509773 50.27637386 C218.86927041 45.75422652 218.31740615 42.85783903 215.52183723 39.26006222 C209.75287759 35.3520573 206.07201937 37.81099524 201.52183723 42.26006222 Z " fill="#F16B4E" transform="translate(247.47816276550293,328.7399377822876)"/>
<path d="M0 0 C1.71177429 -0.00855011 1.71177429 -0.00855011 3.45812988 -0.01727295 C5.86839895 -0.02667043 8.27868057 -0.03323588 10.68896484 -0.03710938 C14.27856661 -0.04670083 17.86756616 -0.07772797 21.45703125 -0.109375 C67.69074725 -0.32148906 124.49826597 6.75387899 159.72265625 40.01171875 C167.19043866 47.72705196 171.29862587 54.99188806 171.27954102 65.79370117 C171.28961685 66.62400848 171.29969269 67.4543158 171.31007385 68.30978394 C171.3384309 71.03869318 171.34442475 73.76704657 171.34765625 76.49609375 C171.35730801 78.40790528 171.36740127 80.31971462 171.37791443 82.23152161 C171.39584675 86.23521046 171.40143866 90.23870548 171.3996582 94.24243164 C171.39935401 99.34549295 171.44025482 104.4472956 171.49197483 109.55005932 C171.52551763 113.49920736 171.53141025 117.4480573 171.52982903 121.39733315 C171.53334408 123.27702471 171.54647147 125.1567261 171.56982613 127.03627586 C171.71343378 139.79017405 170.76678288 149.22745762 162.34375 159.46484375 C127.35662607 193.41328744 71.53990899 201.02566354 24.84375 202.203125 C24.11687988 202.22503906 23.39000977 202.24695313 22.64111328 202.26953125 C-24.84543665 203.55266252 -89.72969296 198.49113661 -126.15625 164.203125 C-126.86652344 163.59339844 -127.57679687 162.98367187 -128.30859375 162.35546875 C-135.76738614 155.59116354 -140.26224933 147.62340313 -140.85746384 137.49906158 C-140.99100637 133.1382175 -140.98606755 128.78421923 -140.953125 124.421875 C-140.95717657 122.5172074 -140.9630078 120.61254284 -140.97052002 118.70788574 C-140.97931981 114.73382766 -140.96665888 110.7605838 -140.93847656 106.78662109 C-140.90429247 101.72279786 -140.92400051 96.66088323 -140.95991135 91.59712982 C-140.98171585 87.66935147 -140.97463632 83.74201683 -140.95914459 79.81422424 C-140.95517593 77.94852973 -140.95993336 76.08279336 -140.97402191 74.21714783 C-141.04772513 61.71771774 -139.89276724 52.08415964 -131.7265625 41.9765625 C-98.86605745 9.74597129 -44.28757782 0.1772982 0 0 Z M-31.15625 22.203125 C-32.16880859 22.37473145 -33.18136719 22.54633789 -34.22460938 22.72314453 C-60.1320356 27.28425371 -90.77549247 34.5125493 -107.1875 56.984375 C-111.57736883 64.02473067 -112.99116181 69.91364345 -112.15625 78.203125 C-109.02846126 90.54470105 -100.71042064 98.6874084 -90.15625 105.203125 C-39.31183392 134.71980891 31.55110803 133.61401788 86.84375 119.203125 C102.24374714 114.9798153 117.8436618 109.03550276 129.84375 98.203125 C130.47667969 97.66171875 131.10960937 97.1203125 131.76171875 96.5625 C138.42487496 90.48183719 142.36899938 82.61528208 143.15625 73.640625 C142.94791254 64.28280069 138.77649843 57.12131119 132.37890625 50.546875 C98.00438389 18.76765556 41.09360297 17.71649218 -2.86102295 19.11199951 C-12.38455748 19.49010447 -21.76676168 20.60228908 -31.15625 22.203125 Z " fill="#F16B4E" transform="translate(140.15625,-0.203125)"/>
<path d="M0 0 C0.80153503 0.6063176 0.80153503 0.6063176 1.6192627 1.22488403 C2.32820679 1.75927094 3.03715088 2.29365784 3.76757812 2.84423828 C4.46693481 3.37220001 5.1662915 3.90016174 5.88684082 4.44412231 C60.79501533 44.87193499 139.83174395 50.4154117 205.39453125 40.96484375 C220.85546248 38.60101476 236.01611847 35.49959319 251 31 C251.74427246 30.77763672 252.48854492 30.55527344 253.25537109 30.32617188 C271.95003343 24.5871461 289.53063439 15.93715833 305 4 C306.99458439 2.65857878 308.9939077 1.32414933 311 0 C311.15322745 7.18559164 311.25766369 14.37075588 311.32958984 21.55761719 C311.35960103 23.99788151 311.40042372 26.43803944 311.45263672 28.87792969 C311.99279138 54.7841708 311.99279138 54.7841708 305 64 C303.88625 65.60875 303.88625 65.60875 302.75 67.25 C266.99215694 103.00784306 206.32456853 110.18228557 158.34164429 110.19107056 C157.61015167 110.18989227 156.87865906 110.18871399 156.125 110.1875 C155.36410065 110.18656342 154.60320129 110.18562683 153.81924438 110.18466187 C106.88995846 110.06049575 48.06319732 104.05153394 11.71875 70.7421875 C6.23136822 65.2075007 0.50085794 58.44229398 -0.24050903 50.38664246 C-0.2338472 48.99098808 -0.2338472 48.99098808 -0.22705078 47.56713867 C-0.22689972 46.50641647 -0.22674866 45.44569427 -0.22659302 44.35282898 C-0.21627045 43.2193251 -0.20594788 42.08582123 -0.1953125 40.91796875 C-0.1924826 39.74865311 -0.18965271 38.57933746 -0.18673706 37.37458801 C-0.17555562 33.64545392 -0.15045434 29.91656132 -0.125 26.1875 C-0.11496759 23.65690451 -0.10584219 21.12630526 -0.09765625 18.59570312 C-0.07562292 12.39705323 -0.04216534 6.19854387 0 0 Z " fill="#F16B4E" transform="translate(0,174)"/>
<path d="M0 0 C1.2855203 0.9630561 2.57089229 1.92631018 3.85620117 2.88964844 C4.57200851 3.42603943 5.28781586 3.96243042 6.02531433 4.51507568 C7.45617142 5.59105173 8.88051411 6.67570862 10.30078125 7.765625 C50.51805371 37.44050565 106.37267312 44.49388777 155 44.3125 C156.02225677 44.31067719 157.04451355 44.30885437 158.0977478 44.30697632 C208.09503074 44.15757962 263.21134813 36.15108931 304 5 C306.31 3.35 308.62 1.7 311 0 C311 18.15 311 36.3 311 55 C303.90177734 55.05607422 303.90177734 55.05607422 296.66015625 55.11328125 C293.64775125 55.14358621 290.63540354 55.17475044 287.62304688 55.20898438 C282.85020975 55.26314425 278.07748593 55.31425994 273.30444336 55.34643555 C269.45278418 55.37260018 265.60150929 55.41309338 261.75008965 55.46318626 C260.28667447 55.47976662 258.82319297 55.49133555 257.35969734 55.49761391 C246.83732749 55.54728742 237.43702835 56.0628878 229 63 C223.39563067 69.27635606 220.82923776 74.97667852 220.5859375 83.4921875 C220.52792969 85.29042969 220.52792969 85.29042969 220.46875 87.125 C220.4378125 88.3625 220.406875 89.6 220.375 90.875 C220.31699219 92.76605469 220.31699219 92.76605469 220.2578125 94.6953125 C220.16383011 97.79673137 220.07816589 100.89814886 220 104 C213.78491241 105.68507657 207.63082611 106.72501657 201.25 107.5625 C199.88101563 107.75102539 199.88101563 107.75102539 198.484375 107.94335938 C184.51109535 109.81758438 170.70615023 110.24141225 156.625 110.25 C155.62922943 110.25067474 154.63345886 110.25134949 153.60751343 110.25204468 C114.19194813 110.20979355 73.79618049 105.5648187 38 88 C37.35595215 87.68949707 36.7119043 87.37899414 36.04833984 87.05908203 C20.8877631 79.67565991 5.97521475 69.49627224 0 53 C-0.62365507 48.78891632 -0.58728082 44.67907733 -0.48828125 40.4296875 C-0.48120651 39.26744659 -0.47413177 38.10520569 -0.46684265 36.90774536 C-0.43906215 33.22948291 -0.37635061 29.55279512 -0.3125 25.875 C-0.28739618 23.36720963 -0.26458669 20.85939517 -0.24414062 18.3515625 C-0.18928907 12.23384619 -0.10582691 6.11703564 0 0 Z " fill="#F16B4E" transform="translate(0,256)"/>
<path d="M0 0 C3.91209019 3.82534761 6.85665148 7.95986333 7.47265625 13.50390625 C7.18723026 19.33801354 4.32416858 23.49037271 0.25 27.5 C-26.88858168 49.14679449 -69.28370683 50.72893116 -102.3125 50.75 C-103.26475464 50.75067474 -104.21700928 50.75134949 -105.19812012 50.75204468 C-137.46311922 50.71584281 -183.05003386 49.55373365 -208.30859375 26.12109375 C-212.09707659 21.86033391 -214.13629929 17.70701454 -213.8125 11.9375 C-212.48153325 4.60462657 -208.43990264 0.73715283 -202.625 -3.5 C-154.43759868 -33.91866482 -45.84739217 -36.99817126 0 0 Z " fill="#F16B4E" transform="translate(258.75,59.5)"/>
<path d="M0 0 C1.27890491 0.95684783 2.55748883 1.91412471 3.8359375 2.87158203 C4.90400635 3.67113815 4.90400635 3.67113815 5.99365234 4.48684692 C7.54952812 5.66026182 9.09044088 6.85352962 10.625 8.0546875 C18.22607106 13.88050841 26.35221551 17.99290778 35 22 C36.1446875 22.53625 37.289375 23.0725 38.46875 23.625 C90.01032981 46.74645636 150.51766038 48.20412922 205.65356445 41.37304688 C210.42798731 40.84081385 215.21573218 40.43493344 220 40 C220 58.15 220 76.3 220 95 C212.11907193 97.25169374 212.11907193 97.25169374 207.890625 97.81640625 C206.97023437 97.94080078 206.04984375 98.06519531 205.1015625 98.19335938 C204.16054687 98.31517578 203.21953125 98.43699219 202.25 98.5625 C201.32445312 98.68818359 200.39890625 98.81386719 199.4453125 98.94335938 C189.28394128 100.29490666 179.22652486 101.15552581 168.97265625 101.203125 C167.95402496 101.21018463 166.93539368 101.21724426 165.88589478 101.22451782 C122.502652 101.45676967 122.502652 101.45676967 102 98 C100.83919922 97.80664062 99.67839844 97.61328125 98.48242188 97.4140625 C74.77031144 93.3078499 51.00398205 87.04128994 30 75 C28.99195312 74.42636719 27.98390625 73.85273438 26.9453125 73.26171875 C15.7176339 66.49712015 3.9529564 57.02604495 0 44 C-0.38981348 40.55668148 -0.3508312 37.15301102 -0.29296875 33.69140625 C-0.28872391 32.72468491 -0.28447906 31.75796356 -0.28010559 30.76194763 C-0.26340522 27.69517351 -0.22576899 24.6290732 -0.1875 21.5625 C-0.172442 19.47461891 -0.15875555 17.38672745 -0.14648438 15.29882812 C-0.11352999 10.19896185 -0.06180751 5.0995949 0 0 Z " fill="#F16B4E" transform="translate(0,338)"/>
<path d="M0 0 C4.76764958 2.57038499 7.8315026 5.95426705 9.89013672 10.91650391 C10.96608349 14.9091529 11.0481113 18.64381873 10.9921875 22.7421875 C10.9893576 23.53275543 10.98652771 24.32332336 10.98361206 25.1378479 C10.97248455 27.64414084 10.94739426 30.15006645 10.921875 32.65625 C10.91183558 34.36327606 10.90271141 36.07030777 10.89453125 37.77734375 C10.87256963 41.9454524 10.83809171 46.11328908 10.796875 50.28125 C8.77489549 49.28704016 6.82679757 48.30020096 4.921875 47.09375 C1.88529848 45.93270604 -0.10811316 46.4251829 -3.203125 47.28125 C-5.203125 48.28125 -5.203125 48.28125 -6.203125 50.28125 C-7.03959986 53.56638122 -7.03959986 53.56638122 -6.203125 57.28125 C-4.60072704 59.51793049 -2.86429474 61.43220814 -0.9296875 63.38671875 C0.78225279 65.26520527 1.78051806 66.96621475 2.796875 69.28125 C-0.36009567 72.43822067 -3.47094619 73.01101114 -7.765625 73.3359375 C-12.80468312 73.22288171 -17.14812024 72.02449122 -21.03125 68.73046875 C-26.84910068 62.36189919 -27.51248286 55.89379656 -27.50390625 47.5703125 C-27.50819138 46.64334564 -27.5124765 45.71637878 -27.51689148 44.76132202 C-27.52261705 42.80638442 -27.52314815 40.85142552 -27.51879883 38.89648438 C-27.51564257 35.92280296 -27.5391075 32.95012086 -27.56445312 29.9765625 C-27.56672683 28.07031374 -27.56742928 26.16406234 -27.56640625 24.2578125 C-27.575616 23.3773526 -27.58482574 22.4968927 -27.59431458 21.5897522 C-27.5469028 15.1888938 -26.73457178 9.31323285 -22.484375 4.22265625 C-21.8965625 3.76761719 -21.30875 3.31257813 -20.703125 2.84375 C-19.82140625 2.13412109 -19.82140625 2.13412109 -18.921875 1.41015625 C-13.76493076 -1.97701849 -5.73003489 -1.86937308 0 0 Z " fill="#F16B4E" transform="translate(392.203125,384.71875)"/>
</svg>
