<svg width="200" height="200" viewBox="0 0 200 200" fill="#F16B4E" xmlns="http://www.w3.org/2000/svg">
<g clip-path="url(#clip0_1089_3280)">
<mask id="mask0_1089_3280" style="mask-type:alpha" maskUnits="userSpaceOnUse" x="47" y="75" width="100" height="100">
<path fill-rule="evenodd" clip-rule="evenodd" d="M117.912 174.317C119.487 174.931 121.283 174.891 122.872 174.126L143.461 164.22C145.624 163.179 147 160.989 147 158.587V91.4132C147 89.0112 145.624 86.8217 143.461 85.7807L122.872 75.8737C120.786 74.8698 118.345 75.1157 116.513 76.4469C116.252 76.637 116.003 76.8494 115.769 77.0833L76.3551 113.041L59.1872 100.01C57.589 98.7964 55.3536 98.8958 53.8693 100.246L48.363 105.255C46.5474 106.906 46.5454 109.763 48.3585 111.417L63.2471 125L48.3585 138.583C46.5454 140.237 46.5474 143.094 48.363 144.745L53.8693 149.754C55.3536 151.104 57.589 151.204 59.1872 149.99L76.3551 136.959L115.769 172.917C116.392 173.541 117.125 174.01 117.912 174.317ZM122.015 102.299L92.1091 125L122.015 147.701V102.299Z" fill="white"/>
</mask>
<g mask="url(#mask0_1089_3280)">
<path d="M143.462 85.796L122.857 75.8754C120.472 74.7271 117.622 75.2115 115.75 77.0832L48.2988 138.583C46.4845 140.237 46.4866 143.094 48.3033 144.745L53.813 149.754C55.2982 151.104 57.5349 151.203 59.134 149.99L140.361 88.3697C143.086 86.3024 147 88.246 147 91.6665V91.4273C147 89.0263 145.625 86.8376 143.462 85.796Z" fill="#F16B4E"/>
<g filter="url(#filter0_d_1089_3280)">
<path d="M143.462 164.204L122.857 174.124C120.472 175.273 117.622 174.788 115.75 172.916L48.2988 111.417C46.4845 109.762 46.4866 106.906 48.3033 105.255L53.813 100.246C55.2982 98.8955 57.5349 98.7961 59.134 100.009L140.361 161.63C143.086 163.697 147 161.754 147 158.333V158.572C147 160.973 145.625 163.162 143.462 164.204Z" fill="#F16B4E"/>
</g>
<g filter="url(#filter1_d_1089_3280)">
<path d="M122.858 174.126C120.472 175.274 117.622 174.788 115.75 172.916C118.056 175.223 122 173.589 122 170.328V79.6719C122 76.4102 118.056 74.7767 115.75 77.0831C117.622 75.2112 120.472 74.7262 122.858 75.8735L143.459 85.7805C145.623 86.8215 147 89.011 147 91.413V158.587C147 160.989 145.623 163.178 143.459 164.219L122.858 174.126Z" fill="#F16B4E"/>
</g>
<g style="mix-blend-mode:overlay" opacity="0.25">
<path fill-rule="evenodd" clip-rule="evenodd" d="M117.851 174.317C119.426 174.93 121.222 174.891 122.812 174.126L143.4 164.219C145.564 163.178 146.939 160.989 146.939 158.587V91.4131C146.939 89.011 145.564 86.8215 143.4 85.7805L122.812 75.8735C120.726 74.8696 118.284 75.1155 116.453 76.4466C116.191 76.6368 115.942 76.8491 115.708 77.0831L76.2945 113.041L59.1266 100.009C57.5285 98.7962 55.2931 98.8957 53.8088 100.246L48.3025 105.255C46.4869 106.906 46.4848 109.762 48.298 111.417L63.1865 125L48.298 138.583C46.4848 140.237 46.4869 143.093 48.3025 144.745L53.8088 149.754C55.2931 151.104 57.5285 151.203 59.1266 149.99L76.2945 136.958L115.708 172.916C116.332 173.54 117.064 174.01 117.851 174.317ZM121.955 102.299L92.0485 125L121.955 147.701V102.299Z" fill="url(#paint0_linear_1089_3280)"/>
</g>
</g>
</g>
<path d="M48.8558 27.0909L53.777 41.9744H53.9709L58.8828 27.0909H62.6499L55.9837 46H51.755L45.098 27.0909H48.8558ZM75.4167 32.2891C75.3306 31.4827 74.9674 30.8549 74.3272 30.4055C73.6932 29.9562 72.8684 29.7315 71.8528 29.7315C71.1388 29.7315 70.5263 29.8393 70.0154 30.0547C69.5046 30.2701 69.1137 30.5625 68.8429 30.9318C68.572 31.3011 68.4335 31.7228 68.4274 32.1967C68.4274 32.5907 68.5166 32.9323 68.6951 33.2216C68.8798 33.5109 69.1291 33.7571 69.443 33.9602C69.7569 34.1572 70.1047 34.3234 70.4863 34.4588C70.868 34.5942 71.2527 34.7081 71.6404 34.8004L73.4132 35.2436C74.1272 35.4098 74.8135 35.6345 75.4721 35.9176C76.1369 36.2008 76.7309 36.5578 77.2541 36.9886C77.7834 37.4195 78.202 37.9396 78.5098 38.549C78.8175 39.1584 78.9714 39.8724 78.9714 40.6911C78.9714 41.799 78.6883 42.7746 78.122 43.6179C77.5557 44.455 76.737 45.1106 75.666 45.5845C74.6011 46.0523 73.3116 46.2862 71.7974 46.2862C70.3263 46.2862 69.0491 46.0585 67.9657 45.603C66.8886 45.1475 66.0453 44.4827 65.4359 43.6087C64.8327 42.7346 64.5065 41.6697 64.4572 40.4141H67.8272C67.8765 41.0727 68.0796 41.6205 68.4366 42.0575C68.7936 42.4946 69.2583 42.8208 69.8308 43.0362C70.4094 43.2517 71.0557 43.3594 71.7697 43.3594C72.5145 43.3594 73.167 43.2486 73.7271 43.027C74.2934 42.7992 74.7366 42.4853 75.0566 42.0852C75.3767 41.679 75.5398 41.205 75.546 40.6634C75.5398 40.1709 75.3952 39.7647 75.112 39.4446C74.8289 39.1184 74.4319 38.8475 73.921 38.6321C73.4163 38.4105 72.8253 38.2135 72.1483 38.0412L69.997 37.4872C68.4397 37.0871 67.2086 36.4808 66.3038 35.6683C65.4051 34.8497 64.9558 33.7633 64.9558 32.4091C64.9558 31.295 65.2574 30.3194 65.8606 29.4822C66.47 28.6451 67.2979 27.9957 68.3443 27.5341C69.3907 27.0663 70.5756 26.8324 71.899 26.8324C73.2408 26.8324 74.4165 27.0663 75.426 27.5341C76.4416 27.9957 77.2387 28.639 77.8173 29.4638C78.3959 30.2824 78.6944 31.2242 78.7129 32.2891H75.4167ZM104.66 33.4709H101.207C101.108 32.9046 100.927 32.4029 100.662 31.9659C100.397 31.5227 100.068 31.1473 99.674 30.8395C99.2801 30.5317 98.8307 30.3009 98.326 30.147C97.8274 29.987 97.2888 29.907 96.7102 29.907C95.6823 29.907 94.7713 30.1655 93.9773 30.6825C93.1832 31.1934 92.5616 31.9444 92.1122 32.9354C91.6629 33.9202 91.4382 35.1236 91.4382 36.5455C91.4382 37.992 91.6629 39.2107 92.1122 40.2017C92.5677 41.1866 93.1894 41.9313 93.9773 42.4361C94.7713 42.9347 95.6792 43.1839 96.701 43.1839C97.2673 43.1839 97.7966 43.1101 98.2891 42.9624C98.7876 42.8085 99.2339 42.5838 99.6278 42.2884C100.028 41.9929 100.363 41.6297 100.634 41.1989C100.911 40.768 101.102 40.2756 101.207 39.7216L104.66 39.7401C104.531 40.6387 104.25 41.482 103.82 42.2699C103.395 43.0578 102.838 43.7533 102.148 44.3565C101.459 44.9536 100.653 45.4214 99.7294 45.7599C98.8061 46.0923 97.7813 46.2585 96.6548 46.2585C94.9929 46.2585 93.5095 45.8738 92.2045 45.1044C90.8996 44.335 89.8717 43.224 89.1207 41.7713C88.3698 40.3187 87.9943 38.5767 87.9943 36.5455C87.9943 34.508 88.3729 32.7661 89.13 31.3196C89.8871 29.867 90.9181 28.7559 92.223 27.9865C93.5279 27.2171 95.0052 26.8324 96.6548 26.8324C97.7074 26.8324 98.6861 26.9801 99.5909 27.2756C100.496 27.571 101.302 28.005 102.01 28.5774C102.718 29.1437 103.299 29.8393 103.755 30.6641C104.217 31.4827 104.518 32.4183 104.66 33.4709ZM113.835 46.277C112.45 46.277 111.25 45.9723 110.234 45.3629C109.219 44.7536 108.431 43.901 107.871 42.8054C107.317 41.7098 107.04 40.4295 107.04 38.9645C107.04 37.4995 107.317 36.2161 107.871 35.1143C108.431 34.0125 109.219 33.157 110.234 32.5476C111.25 31.9382 112.45 31.6335 113.835 31.6335C115.22 31.6335 116.42 31.9382 117.436 32.5476C118.452 33.157 119.236 34.0125 119.79 35.1143C120.35 36.2161 120.631 37.4995 120.631 38.9645C120.631 40.4295 120.35 41.7098 119.79 42.8054C119.236 43.901 118.452 44.7536 117.436 45.3629C116.42 45.9723 115.22 46.277 113.835 46.277ZM113.854 43.5994C114.604 43.5994 115.232 43.3932 115.737 42.9808C116.242 42.5623 116.617 42.0021 116.863 41.3004C117.116 40.5987 117.242 39.817 117.242 38.9553C117.242 38.0874 117.116 37.3026 116.863 36.6009C116.617 35.893 116.242 35.3298 115.737 34.9112C115.232 34.4927 114.604 34.2834 113.854 34.2834C113.084 34.2834 112.444 34.4927 111.933 34.9112C111.428 35.3298 111.05 35.893 110.797 36.6009C110.551 37.3026 110.428 38.0874 110.428 38.9553C110.428 39.817 110.551 40.5987 110.797 41.3004C111.05 42.0021 111.428 42.5623 111.933 42.9808C112.444 43.3932 113.084 43.5994 113.854 43.5994ZM128.73 46.2493C127.616 46.2493 126.619 45.9631 125.739 45.3906C124.858 44.8182 124.163 43.9872 123.652 42.8977C123.141 41.8082 122.886 40.4848 122.886 38.9276C122.886 37.3518 123.144 36.0223 123.661 34.9389C124.184 33.8494 124.889 33.0277 125.776 32.4737C126.662 31.9136 127.65 31.6335 128.739 31.6335C129.57 31.6335 130.254 31.7751 130.789 32.0582C131.325 32.3352 131.749 32.6707 132.063 33.0646C132.377 33.4524 132.62 33.8187 132.793 34.1634H132.931V27.0909H136.283V46H132.996V43.7656H132.793C132.62 44.1103 132.371 44.4766 132.045 44.8643C131.719 45.246 131.288 45.5722 130.752 45.843C130.217 46.1139 129.543 46.2493 128.73 46.2493ZM129.663 43.5071C130.371 43.5071 130.974 43.3163 131.472 42.9347C131.971 42.5469 132.349 42.0083 132.608 41.3189C132.866 40.6295 132.996 39.8262 132.996 38.9091C132.996 37.992 132.866 37.1948 132.608 36.5178C132.356 35.8407 131.98 35.3144 131.482 34.9389C130.989 34.5634 130.383 34.3757 129.663 34.3757C128.918 34.3757 128.296 34.5696 127.798 34.9574C127.299 35.3452 126.924 35.8807 126.671 36.5639C126.419 37.2472 126.293 38.0289 126.293 38.9091C126.293 39.7955 126.419 40.5864 126.671 41.282C126.93 41.9714 127.308 42.5161 127.807 42.9162C128.312 43.3101 128.93 43.5071 129.663 43.5071ZM146.123 46.277C144.701 46.277 143.473 45.9815 142.439 45.3906C141.411 44.7936 140.62 43.9503 140.066 42.8608C139.512 41.7652 139.235 40.4756 139.235 38.9922C139.235 37.5334 139.512 36.2531 140.066 35.1513C140.626 34.0433 141.408 33.1816 142.411 32.5661C143.414 31.9444 144.593 31.6335 145.947 31.6335C146.821 31.6335 147.646 31.7751 148.422 32.0582C149.203 32.3352 149.893 32.7661 150.49 33.3509C151.093 33.9356 151.567 34.6804 151.912 35.5852C152.256 36.4839 152.429 37.5549 152.429 38.7983V39.8232H140.805V37.5703H149.225C149.219 36.9302 149.08 36.3608 148.809 35.8622C148.539 35.3575 148.16 34.9605 147.674 34.6712C147.194 34.3819 146.634 34.2372 145.993 34.2372C145.31 34.2372 144.71 34.4034 144.193 34.7358C143.676 35.062 143.273 35.4929 142.983 36.0284C142.7 36.5578 142.556 37.1394 142.55 37.7734V39.7401C142.55 40.5649 142.7 41.2727 143.002 41.8636C143.304 42.4484 143.725 42.8977 144.267 43.2116C144.809 43.5194 145.443 43.6733 146.169 43.6733C146.655 43.6733 147.095 43.6056 147.489 43.4702C147.883 43.3286 148.225 43.1224 148.514 42.8516C148.803 42.5807 149.022 42.2453 149.17 41.8452L152.29 42.196C152.093 43.0208 151.718 43.741 151.164 44.3565C150.616 44.9659 149.914 45.4399 149.059 45.7784C148.203 46.1108 147.224 46.277 146.123 46.277Z" fill="#F16B4E"/>
<defs>
<filter id="filter0_d_1089_3280" x="38.6061" y="90.8288" width="116.727" height="92.2458" filterUnits="userSpaceOnUse" color-interpolation-filters="sRGB">
<feFlood flood-opacity="0" result="BackgroundImageFix"/>
<feColorMatrix in="SourceAlpha" type="matrix" values="0 0 0 0 0 0 0 0 0 0 0 0 0 0 0 0 0 0 127 0" result="hardAlpha"/>
<feOffset/>
<feGaussianBlur stdDeviation="4.16667"/>
<feColorMatrix type="matrix" values="0 0 0 0 0 0 0 0 0 0 0 0 0 0 0 0 0 0 0.25 0"/>
<feBlend mode="overlay" in2="BackgroundImageFix" result="effect1_dropShadow_1089_3280"/>
<feBlend mode="normal" in="SourceGraphic" in2="effect1_dropShadow_1089_3280" result="shape"/>
</filter>
<filter id="filter1_d_1089_3280" x="107.417" y="66.9242" width="47.9167" height="116.151" filterUnits="userSpaceOnUse" color-interpolation-filters="sRGB">
<feFlood flood-opacity="0" result="BackgroundImageFix"/>
<feColorMatrix in="SourceAlpha" type="matrix" values="0 0 0 0 0 0 0 0 0 0 0 0 0 0 0 0 0 0 127 0" result="hardAlpha"/>
<feOffset/>
<feGaussianBlur stdDeviation="4.16667"/>
<feColorMatrix type="matrix" values="0 0 0 0 0 0 0 0 0 0 0 0 0 0 0 0 0 0 0.25 0"/>
<feBlend mode="overlay" in2="BackgroundImageFix" result="effect1_dropShadow_1089_3280"/>
<feBlend mode="normal" in="SourceGraphic" in2="effect1_dropShadow_1089_3280" result="shape"/>
</filter>
<linearGradient id="paint0_linear_1089_3280" x1="96.9394" y1="75.2576" x2="96.9394" y2="174.742" gradientUnits="userSpaceOnUse">
<stop stop-color="white"/>
<stop offset="1" stop-color="white" stop-opacity="0"/>
</linearGradient>
<clipPath id="clip0_1089_3280">
<rect width="100" height="100" fill="#F16B4E" transform="translate(47 75)"/>
</clipPath>
</defs>
</svg>
